<?xml version='1.0' encoding='UTF-8'?>
<svg width="45mm" height="45mm" version="1.1" viewBox="0 0 45 45" xmlns="http://www.w3.org/2000/svg"><path d="M2,2H3V3H2zM3,2H4V3H3zM4,2H5V3H4zM5,2H6V3H5zM6,2H7V3H6zM7,2H8V3H7zM8,2H9V3H8zM10,2H11V3H10zM11,2H12V3H11zM14,2H15V3H14zM16,2H17V3H16zM21,2H22V3H21zM25,2H26V3H25zM27,2H28V3H27zM28,2H29V3H28zM34,2H35V3H34zM36,2H37V3H36zM37,2H38V3H37zM38,2H39V3H38zM39,2H40V3H39zM40,2H41V3H40zM41,2H42V3H41zM42,2H43V3H42zM2,3H3V4H2zM8,3H9V4H8zM10,3H11V4H10zM11,3H12V4H11zM12,3H13V4H12zM14,3H15V4H14zM15,3H16V4H15zM16,3H17V4H16zM17,3H18V4H17zM19,3H20V4H19zM21,3H22V4H21zM22,3H23V4H22zM24,3H25V4H24zM27,3H28V4H27zM30,3H31V4H30zM31,3H32V4H31zM33,3H34V4H33zM34,3H35V4H34zM36,3H37V4H36zM42,3H43V4H42zM2,4H3V5H2zM4,4H5V5H4zM5,4H6V5H5zM6,4H7V5H6zM8,4H9V5H8zM10,4H11V5H10zM12,4H13V5H12zM16,4H17V5H16zM19,4H20V5H19zM20,4H21V5H20zM23,4H24V5H23zM25,4H26V5H25zM26,4H27V5H26zM27,4H28V5H27zM28,4H29V5H28zM30,4H31V5H30zM34,4H35V5H34zM36,4H37V5H36zM38,4H39V5H38zM39,4H40V5H39zM40,4H41V5H40zM42,4H43V5H42zM2,5H3V6H2zM4,5H5V6H4zM5,5H6V6H5zM6,5H7V6H6zM8,5H9V6H8zM12,5H13V6H12zM14,5H15V6H14zM17,5H18V6H17zM18,5H19V6H18zM21,5H22V6H21zM24,5H25V6H24zM25,5H26V6H25zM26,5H27V6H26zM27,5H28V6H27zM30,5H31V6H30zM34,5H35V6H34zM36,5H37V6H36zM38,5H39V6H38zM39,5H40V6H39zM40,5H41V6H40zM42,5H43V6H42zM2,6H3V7H2zM4,6H5V7H4zM5,6H6V7H5zM6,6H7V7H6zM8,6H9V7H8zM10,6H11V7H10zM12,6H13V7H12zM13,6H14V7H13zM14,6H15V7H14zM15,6H16V7H15zM18,6H19V7H18zM20,6H21V7H20zM21,6H22V7H21zM23,6H24V7H23zM25,6H26V7H25zM29,6H30V7H29zM30,6H31V7H30zM31,6H32V7H31zM32,6H33V7H32zM36,6H37V7H36zM38,6H39V7H38zM39,6H40V7H39zM40,6H41V7H40zM42,6H43V7H42zM2,7H3V8H2zM8,7H9V8H8zM13,7H14V8H13zM16,7H17V8H16zM17,7H18V8H17zM18,7H19V8H18zM25,7H26V8H25zM26,7H27V8H26zM27,7H28V8H27zM28,7H29V8H28zM31,7H32V8H31zM34,7H35V8H34zM36,7H37V8H36zM42,7H43V8H42zM2,8H3V9H2zM3,8H4V9H3zM4,8H5V9H4zM5,8H6V9H5zM6,8H7V9H6zM7,8H8V9H7zM8,8H9V9H8zM10,8H11V9H10zM12,8H13V9H12zM14,8H15V9H14zM16,8H17V9H16zM18,8H19V9H18zM20,8H21V9H20zM22,8H23V9H22zM24,8H25V9H24zM26,8H27V9H26zM28,8H29V9H28zM30,8H31V9H30zM32,8H33V9H32zM34,8H35V9H34zM36,8H37V9H36zM37,8H38V9H37zM38,8H39V9H38zM39,8H40V9H39zM40,8H41V9H40zM41,8H42V9H41zM42,8H43V9H42zM13,9H14V10H13zM18,9H19V10H18zM22,9H23V10H22zM24,9H25V10H24zM26,9H27V10H26zM27,9H28V10H27zM32,9H33V10H32zM33,9H34V10H33zM34,9H35V10H34zM2,10H3V11H2zM5,10H6V11H5zM6,10H7V11H6zM7,10H8V11H7zM8,10H9V11H8zM9,10H10V11H9zM10,10H11V11H10zM12,10H13V11H12zM14,10H15V11H14zM15,10H16V11H15zM16,10H17V11H16zM18,10H19V11H18zM19,10H20V11H19zM24,10H25V11H24zM25,10H26V11H25zM26,10H27V11H26zM28,10H29V11H28zM29,10H30V11H29zM30,10H31V11H30zM31,10H32V11H31zM33,10H34V11H33zM35,10H36V11H35zM38,10H39V11H38zM40,10H41V11H40zM41,10H42V11H41zM42,10H43V11H42zM3,11H4V12H3zM6,11H7V12H6zM7,11H8V12H7zM13,11H14V12H13zM18,11H19V12H18zM19,11H20V12H19zM20,11H21V12H20zM21,11H22V12H21zM22,11H23V12H22zM24,11H25V12H24zM25,11H26V12H25zM27,11H28V12H27zM28,11H29V12H28zM29,11H30V12H29zM32,11H33V12H32zM33,11H34V12H33zM37,11H38V12H37zM38,11H39V12H38zM41,11H42V12H41zM4,12H5V13H4zM5,12H6V13H5zM6,12H7V13H6zM8,12H9V13H8zM9,12H10V13H9zM14,12H15V13H14zM19,12H20V13H19zM20,12H21V13H20zM23,12H24V13H23zM24,12H25V13H24zM25,12H26V13H25zM26,12H27V13H26zM29,12H30V13H29zM36,12H37V13H36zM40,12H41V13H40zM6,13H7V14H6zM7,13H8V14H7zM9,13H10V14H9zM12,13H13V14H12zM14,13H15V14H14zM18,13H19V14H18zM19,13H20V14H19zM20,13H21V14H20zM22,13H23V14H22zM24,13H25V14H24zM25,13H26V14H25zM29,13H30V14H29zM31,13H32V14H31zM32,13H33V14H32zM33,13H34V14H33zM34,13H35V14H34zM35,13H36V14H35zM36,13H37V14H36zM37,13H38V14H37zM38,13H39V14H38zM39,13H40V14H39zM42,13H43V14H42zM3,14H4V15H3zM4,14H5V15H4zM5,14H6V15H5zM8,14H9V15H8zM10,14H11V15H10zM11,14H12V15H11zM12,14H13V15H12zM13,14H14V15H13zM14,14H15V15H14zM17,14H18V15H17zM19,14H20V15H19zM26,14H27V15H26zM27,14H28V15H27zM30,14H31V15H30zM31,14H32V15H31zM34,14H35V15H34zM36,14H37V15H36zM37,14H38V15H37zM2,15H3V16H2zM3,15H4V16H3zM4,15H5V16H4zM6,15H7V16H6zM7,15H8V16H7zM9,15H10V16H9zM11,15H12V16H11zM13,15H14V16H13zM15,15H16V16H15zM16,15H17V16H16zM18,15H19V16H18zM19,15H20V16H19zM20,15H21V16H20zM21,15H22V16H21zM22,15H23V16H22zM23,15H24V16H23zM24,15H25V16H24zM25,15H26V16H25zM29,15H30V16H29zM30,15H31V16H30zM32,15H33V16H32zM33,15H34V16H33zM38,15H39V16H38zM42,15H43V16H42zM2,16H3V17H2zM7,16H8V17H7zM8,16H9V17H8zM9,16H10V17H9zM10,16H11V17H10zM12,16H13V17H12zM13,16H14V17H13zM14,16H15V17H14zM15,16H16V17H15zM16,16H17V17H16zM17,16H18V17H17zM19,16H20V17H19zM20,16H21V17H20zM21,16H22V17H21zM22,16H23V17H22zM24,16H25V17H24zM26,16H27V17H26zM29,16H30V17H29zM33,16H34V17H33zM35,16H36V17H35zM36,16H37V17H36zM38,16H39V17H38zM41,16H42V17H41zM42,16H43V17H42zM4,17H5V18H4zM6,17H7V18H6zM7,17H8V18H7zM9,17H10V18H9zM11,17H12V18H11zM13,17H14V18H13zM15,17H16V18H15zM20,17H21V18H20zM22,17H23V18H22zM24,17H25V18H24zM25,17H26V18H25zM26,17H27V18H26zM28,17H29V18H28zM30,17H31V18H30zM33,17H34V18H33zM35,17H36V18H35zM37,17H38V18H37zM38,17H39V18H38zM39,17H40V18H39zM40,17H41V18H40zM42,17H43V18H42zM2,18H3V19H2zM7,18H8V19H7zM8,18H9V19H8zM9,18H10V19H9zM10,18H11V19H10zM13,18H14V19H13zM15,18H16V19H15zM17,18H18V19H17zM18,18H19V19H18zM20,18H21V19H20zM23,18H24V19H23zM24,18H25V19H24zM25,18H26V19H25zM26,18H27V19H26zM27,18H28V19H27zM30,18H31V19H30zM34,18H35V19H34zM35,18H36V19H35zM39,18H40V19H39zM42,18H43V19H42zM2,19H3V20H2zM3,19H4V20H3zM4,19H5V20H4zM6,19H7V20H6zM7,19H8V20H7zM9,19H10V20H9zM12,19H13V20H12zM14,19H15V20H14zM17,19H18V20H17zM18,19H19V20H18zM19,19H20V20H19zM22,19H23V20H22zM23,19H24V20H23zM24,19H25V20H24zM28,19H29V20H28zM29,19H30V20H29zM30,19H31V20H30zM31,19H32V20H31zM32,19H33V20H32zM34,19H35V20H34zM35,19H36V20H35zM38,19H39V20H38zM39,19H40V20H39zM40,19H41V20H40zM2,20H3V21H2zM3,20H4V21H3zM4,20H5V21H4zM5,20H6V21H5zM7,20H8V21H7zM8,20H9V21H8zM11,20H12V21H11zM13,20H14V21H13zM14,20H15V21H14zM17,20H18V21H17zM19,20H20V21H19zM20,20H21V21H20zM21,20H22V21H21zM25,20H26V21H25zM26,20H27V21H26zM29,20H30V21H29zM30,20H31V21H30zM31,20H32V21H31zM32,20H33V21H32zM33,20H34V21H33zM37,20H38V21H37zM38,20H39V21H38zM40,20H41V21H40zM42,20H43V21H42zM3,21H4V22H3zM5,21H6V22H5zM9,21H10V22H9zM11,21H12V22H11zM13,21H14V22H13zM16,21H17V22H16zM17,21H18V22H17zM22,21H23V22H22zM23,21H24V22H23zM25,21H26V22H25zM26,21H27V22H26zM27,21H28V22H27zM30,21H31V22H30zM35,21H36V22H35zM36,21H37V22H36zM38,21H39V22H38zM39,21H40V22H39zM40,21H41V22H40zM42,21H43V22H42zM2,22H3V23H2zM3,22H4V23H3zM4,22H5V23H4zM6,22H7V23H6zM7,22H8V23H7zM8,22H9V23H8zM9,22H10V23H9zM11,22H12V23H11zM12,22H13V23H12zM14,22H15V23H14zM15,22H16V23H15zM17,22H18V23H17zM20,22H21V23H20zM22,22H23V23H22zM23,22H24V23H23zM25,22H26V23H25zM28,22H29V23H28zM29,22H30V23H29zM31,22H32V23H31zM32,22H33V23H32zM33,22H34V23H33zM34,22H35V23H34zM36,22H37V23H36zM38,22H39V23H38zM40,22H41V23H40zM41,22H42V23H41zM42,22H43V23H42zM3,23H4V24H3zM4,23H5V24H4zM7,23H8V24H7zM10,23H11V24H10zM11,23H12V24H11zM13,23H14V24H13zM14,23H15V24H14zM16,23H17V24H16zM23,23H24V24H23zM24,23H25V24H24zM25,23H26V24H25zM27,23H28V24H27zM28,23H29V24H28zM31,23H32V24H31zM32,23H33V24H32zM33,23H34V24H33zM34,23H35V24H34zM37,23H38V24H37zM38,23H39V24H38zM39,23H40V24H39zM40,23H41V24H40zM2,24H3V25H2zM5,24H6V25H5zM7,24H8V25H7zM8,24H9V25H8zM9,24H10V25H9zM10,24H11V25H10zM11,24H12V25H11zM14,24H15V25H14zM15,24H16V25H15zM16,24H17V25H16zM24,24H25V25H24zM25,24H26V25H25zM26,24H27V25H26zM27,24H28V25H27zM29,24H30V25H29zM37,24H38V25H37zM38,24H39V25H38zM39,24H40V25H39zM40,24H41V25H40zM5,25H6V26H5zM7,25H8V26H7zM9,25H10V26H9zM10,25H11V26H10zM11,25H12V26H11zM13,25H14V26H13zM14,25H15V26H14zM15,25H16V26H15zM18,25H19V26H18zM19,25H20V26H19zM20,25H21V26H20zM21,25H22V26H21zM24,25H25V26H24zM26,25H27V26H26zM28,25H29V26H28zM30,25H31V26H30zM31,25H32V26H31zM33,25H34V26H33zM34,25H35V26H34zM37,25H38V26H37zM39,25H40V26H39zM41,25H42V26H41zM4,26H5V27H4zM5,26H6V27H5zM6,26H7V27H6zM7,26H8V27H7zM8,26H9V27H8zM10,26H11V27H10zM15,26H16V27H15zM16,26H17V27H16zM18,26H19V27H18zM21,26H22V27H21zM22,26H23V27H22zM26,26H27V27H26zM29,26H30V27H29zM30,26H31V27H30zM34,26H35V27H34zM35,26H36V27H35zM36,26H37V27H36zM37,26H38V27H37zM38,26H39V27H38zM40,26H41V27H40zM41,26H42V27H41zM42,26H43V27H42zM2,27H3V28H2zM4,27H5V28H4zM6,27H7V28H6zM15,27H16V28H15zM16,27H17V28H16zM17,27H18V28H17zM18,27H19V28H18zM19,27H20V28H19zM20,27H21V28H20zM25,27H26V28H25zM27,27H28V28H27zM28,27H29V28H28zM29,27H30V28H29zM32,27H33V28H32zM34,27H35V28H34zM35,27H36V28H35zM36,27H37V28H36zM37,27H38V28H37zM38,27H39V28H38zM40,27H41V28H40zM42,27H43V28H42zM3,28H4V29H3zM4,28H5V29H4zM6,28H7V29H6zM8,28H9V29H8zM12,28H13V29H12zM13,28H14V29H13zM14,28H15V29H14zM17,28H18V29H17zM19,28H20V29H19zM20,28H21V29H20zM21,28H22V29H21zM22,28H23V29H22zM24,28H25V29H24zM29,28H30V29H29zM32,28H33V29H32zM33,28H34V29H33zM34,28H35V29H34zM35,28H36V29H35zM38,28H39V29H38zM39,28H40V29H39zM42,28H43V29H42zM3,29H4V30H3zM4,29H5V30H4zM6,29H7V30H6zM7,29H8V30H7zM12,29H13V30H12zM13,29H14V30H13zM15,29H16V30H15zM16,29H17V30H16zM20,29H21V30H20zM21,29H22V30H21zM25,29H26V30H25zM29,29H30V30H29zM30,29H31V30H30zM33,29H34V30H33zM35,29H36V30H35zM37,29H38V30H37zM38,29H39V30H38zM39,29H40V30H39zM40,29H41V30H40zM41,29H42V30H41zM3,30H4V31H3zM4,30H5V31H4zM6,30H7V31H6zM7,30H8V31H7zM8,30H9V31H8zM12,30H13V31H12zM13,30H14V31H13zM14,30H15V31H14zM17,30H18V31H17zM18,30H19V31H18zM21,30H22V31H21zM22,30H23V31H22zM25,30H26V31H25zM27,30H28V31H27zM29,30H30V31H29zM31,30H32V31H31zM33,30H34V31H33zM37,30H38V31H37zM39,30H40V31H39zM41,30H42V31H41zM2,31H3V32H2zM7,31H8V32H7zM9,31H10V32H9zM10,31H11V32H10zM12,31H13V32H12zM13,31H14V32H13zM15,31H16V32H15zM16,31H17V32H16zM17,31H18V32H17zM18,31H19V32H18zM19,31H20V32H19zM22,31H23V32H22zM27,31H28V32H27zM29,31H30V32H29zM32,31H33V32H32zM34,31H35V32H34zM36,31H37V32H36zM38,31H39V32H38zM2,32H3V33H2zM3,32H4V33H3zM4,32H5V33H4zM6,32H7V33H6zM7,32H8V33H7zM8,32H9V33H8zM11,32H12V33H11zM13,32H14V33H13zM15,32H16V33H15zM16,32H17V33H16zM17,32H18V33H17zM18,32H19V33H18zM20,32H21V33H20zM22,32H23V33H22zM25,32H26V33H25zM28,32H29V33H28zM29,32H30V33H29zM30,32H31V33H30zM31,32H32V33H31zM32,32H33V33H32zM33,32H34V33H33zM34,32H35V33H34zM35,32H36V33H35zM42,32H43V33H42zM2,33H3V34H2zM3,33H4V34H3zM4,33H5V34H4zM5,33H6V34H5zM7,33H8V34H7zM9,33H10V34H9zM10,33H11V34H10zM11,33H12V34H11zM12,33H13V34H12zM13,33H14V34H13zM25,33H26V34H25zM27,33H28V34H27zM28,33H29V34H28zM29,33H30V34H29zM30,33H31V34H30zM36,33H37V34H36zM37,33H38V34H37zM39,33H40V34H39zM40,33H41V34H40zM42,33H43V34H42zM2,34H3V35H2zM3,34H4V35H3zM4,34H5V35H4zM5,34H6V35H5zM6,34H7V35H6zM7,34H8V35H7zM8,34H9V35H8zM11,34H12V35H11zM13,34H14V35H13zM14,34H15V35H14zM23,34H24V35H23zM25,34H26V35H25zM26,34H27V35H26zM29,34H30V35H29zM30,34H31V35H30zM33,34H34V35H33zM34,34H35V35H34zM35,34H36V35H35zM36,34H37V35H36zM37,34H38V35H37zM38,34H39V35H38zM39,34H40V35H39zM40,34H41V35H40zM41,34H42V35H41zM10,35H11V36H10zM11,35H12V36H11zM12,35H13V36H12zM14,35H15V36H14zM16,35H17V36H16zM18,35H19V36H18zM19,35H20V36H19zM20,35H21V36H20zM25,35H26V36H25zM31,35H32V36H31zM33,35H34V36H33zM34,35H35V36H34zM38,35H39V36H38zM39,35H40V36H39zM40,35H41V36H40zM41,35H42V36H41zM2,36H3V37H2zM3,36H4V37H3zM4,36H5V37H4zM5,36H6V37H5zM6,36H7V37H6zM7,36H8V37H7zM8,36H9V37H8zM10,36H11V37H10zM12,36H13V37H12zM13,36H14V37H13zM14,36H15V37H14zM16,36H17V37H16zM17,36H18V37H17zM18,36H19V37H18zM23,36H24V37H23zM25,36H26V37H25zM26,36H27V37H26zM27,36H28V37H27zM29,36H30V37H29zM33,36H34V37H33zM34,36H35V37H34zM36,36H37V37H36zM38,36H39V37H38zM40,36H41V37H40zM2,37H3V38H2zM8,37H9V38H8zM10,37H11V38H10zM11,37H12V38H11zM14,37H15V38H14zM17,37H18V38H17zM20,37H21V38H20zM29,37H30V38H29zM31,37H32V38H31zM33,37H34V38H33zM34,37H35V38H34zM38,37H39V38H38zM39,37H40V38H39zM41,37H42V38H41zM2,38H3V39H2zM4,38H5V39H4zM5,38H6V39H5zM6,38H7V39H6zM8,38H9V39H8zM10,38H11V39H10zM12,38H13V39H12zM13,38H14V39H13zM14,38H15V39H14zM16,38H17V39H16zM18,38H19V39H18zM19,38H20V39H19zM23,38H24V39H23zM24,38H25V39H24zM25,38H26V39H25zM29,38H30V39H29zM33,38H34V39H33zM34,38H35V39H34zM35,38H36V39H35zM36,38H37V39H36zM37,38H38V39H37zM38,38H39V39H38zM39,38H40V39H39zM2,39H3V40H2zM4,39H5V40H4zM5,39H6V40H5zM6,39H7V40H6zM8,39H9V40H8zM10,39H11V40H10zM11,39H12V40H11zM13,39H14V40H13zM14,39H15V40H14zM17,39H18V40H17zM19,39H20V40H19zM20,39H21V40H20zM24,39H25V40H24zM28,39H29V40H28zM29,39H30V40H29zM30,39H31V40H30zM33,39H34V40H33zM37,39H38V40H37zM40,39H41V40H40zM42,39H43V40H42zM2,40H3V41H2zM4,40H5V41H4zM5,40H6V41H5zM6,40H7V41H6zM8,40H9V41H8zM11,40H12V41H11zM13,40H14V41H13zM16,40H17V41H16zM21,40H22V41H21zM24,40H25V41H24zM28,40H29V41H28zM29,40H30V41H29zM31,40H32V41H31zM32,40H33V41H32zM35,40H36V41H35zM37,40H38V41H37zM38,40H39V41H38zM42,40H43V41H42zM2,41H3V42H2zM8,41H9V42H8zM11,41H12V42H11zM13,41H14V42H13zM17,41H18V42H17zM18,41H19V42H18zM19,41H20V42H19zM20,41H21V42H20zM22,41H23V42H22zM25,41H26V42H25zM26,41H27V42H26zM30,41H31V42H30zM35,41H36V42H35zM36,41H37V42H36zM38,41H39V42H38zM39,41H40V42H39zM40,41H41V42H40zM42,41H43V42H42zM2,42H3V43H2zM3,42H4V43H3zM4,42H5V43H4zM5,42H6V43H5zM6,42H7V43H6zM7,42H8V43H7zM8,42H9V43H8zM10,42H11V43H10zM12,42H13V43H12zM16,42H17V43H16zM19,42H20V43H19zM20,42H21V43H20zM21,42H22V43H21zM22,42H23V43H22zM24,42H25V43H24zM25,42H26V43H25zM26,42H27V43H26zM27,42H28V43H27zM30,42H31V43H30zM34,42H35V43H34zM38,42H39V43H38zM39,42H40V43H39z" id="qr-path" fill="#000000" fill-opacity="1" fill-rule="nonzero" stroke="none"/></svg>